<svg width="250" height="250" viewBox="0 0 250 250" fill="none" xmlns="http://www.w3.org/2000/svg">
<rect x="0.5" y="0.5" width="249" height="249" rx="124.5" fill="#5F0A61" stroke="#F2F6FA"/>
<path d="M67.9801 198H62.9801C62.9801 200.761 65.2187 203 67.9801 203V198ZM67.9801 52.5454V47.5454C65.2187 47.5454 62.9801 49.784 62.9801 52.5454H67.9801ZM89.9261 52.5454H94.9261C94.9261 49.784 92.6876 47.5454 89.9261 47.5454V52.5454ZM89.9261 115.756H84.9261C84.9261 118.517 87.1647 120.756 89.9261 120.756V115.756ZM162.44 115.756V120.756C165.202 120.756 167.44 118.517 167.44 115.756H162.44ZM162.44 52.5454V47.5454C159.679 47.5454 157.44 49.784 157.44 52.5454H162.44ZM184.457 52.5454H189.457C189.457 49.784 187.219 47.5454 184.457 47.5454V52.5454ZM184.457 198V203C187.219 203 189.457 200.761 189.457 198H184.457ZM162.44 198H157.44C157.44 200.761 159.679 203 162.44 203V198ZM162.44 134.577H167.44C167.44 131.815 165.202 129.577 162.44 129.577V134.577ZM89.9261 134.577V129.577C87.1647 129.577 84.9261 131.815 84.9261 134.577H89.9261ZM89.9261 198V203C92.6876 203 94.9261 200.761 94.9261 198H89.9261ZM72.9801 198V52.5454H62.9801V198H72.9801ZM67.9801 57.5454H89.9261V47.5454H67.9801V57.5454ZM84.9261 52.5454V115.756H94.9261V52.5454H84.9261ZM89.9261 120.756H162.44V110.756H89.9261V120.756ZM167.44 115.756V52.5454H157.44V115.756H167.44ZM162.44 57.5454H184.457V47.5454H162.44V57.5454ZM179.457 52.5454V198H189.457V52.5454H179.457ZM184.457 193H162.44V203H184.457V193ZM167.44 198V134.577H157.44V198H167.44ZM162.44 129.577H89.9261V139.577H162.44V129.577ZM84.9261 134.577V198H94.9261V134.577H84.9261ZM89.9261 193H67.9801V203H89.9261V193Z" fill="white" fill-opacity="0.58"/>
</svg>
