<svg width="118" height="146" viewBox="0 0 118 146" fill="none" xmlns="http://www.w3.org/2000/svg">
<path d="M0.980114 146H-4.01989C-4.01989 148.761 -1.78131 151 0.980114 151V146ZM0.980114 0.545448V-4.45455C-1.78131 -4.45455 -4.01989 -2.21597 -4.01989 0.545448H0.980114ZM22.9261 0.545448H27.9261C27.9261 -2.21597 25.6876 -4.45455 22.9261 -4.45455V0.545448ZM22.9261 63.7557H17.9261C17.9261 66.5171 20.1647 68.7557 22.9261 68.7557V63.7557ZM95.4404 63.7557V68.7557C98.2018 68.7557 100.44 66.5171 100.44 63.7557H95.4404ZM95.4404 0.545448V-4.45455C92.6789 -4.45455 90.4404 -2.21597 90.4404 0.545448H95.4404ZM117.457 0.545448H122.457C122.457 -2.21597 120.219 -4.45455 117.457 -4.45455V0.545448ZM117.457 146V151C120.219 151 122.457 148.761 122.457 146H117.457ZM95.4404 146H90.4404C90.4404 148.761 92.6789 151 95.4404 151V146ZM95.4404 82.5767H100.44C100.44 79.8153 98.2018 77.5767 95.4404 77.5767V82.5767ZM22.9261 82.5767V77.5767C20.1647 77.5767 17.9261 79.8153 17.9261 82.5767H22.9261ZM22.9261 146V151C25.6876 151 27.9261 148.761 27.9261 146H22.9261ZM5.98011 146V0.545448H-4.01989V146H5.98011ZM0.980114 5.54545H22.9261V-4.45455H0.980114V5.54545ZM17.9261 0.545448V63.7557H27.9261V0.545448H17.9261ZM22.9261 68.7557H95.4404V58.7557H22.9261V68.7557ZM100.44 63.7557V0.545448H90.4404V63.7557H100.44ZM95.4404 5.54545H117.457V-4.45455H95.4404V5.54545ZM112.457 0.545448V146H122.457V0.545448H112.457ZM117.457 141H95.4404V151H117.457V141ZM100.44 146V82.5767H90.4404V146H100.44ZM95.4404 77.5767H22.9261V87.5767H95.4404V77.5767ZM17.9261 82.5767V146H27.9261V82.5767H17.9261ZM22.9261 141H0.980114V151H22.9261V141Z" fill="white" fill-opacity="0.58"/>
</svg>
